<?xml version="1.0" encoding="UTF-8" standalone="no"?>
<svg
  xmlns:dc="http://purl.org/dc/elements/1.1/"
  xmlns:cc="http://creativecommons.org/ns#"
  xmlns:rdf="http://www.w3.org/1999/02/22-rdf-syntax-ns#"
  xmlns:svg="http://www.w3.org/2000/svg"
  xmlns="http://www.w3.org/2000/svg"
  xml:space="preserve"
  enable-background="new 0 0 119.99 63.835"
  viewBox="0 0 512.00001 512.00001"
  height="512"
  width="512"
  y="0px"
  x="0px"
  id="Layer_2"
  version="1.1">
  <metadata id="metadata11">
    <rdf:RDF>
      <cc:Work rdf:about="">
        <dc:format>image/svg+xml</dc:format>
        <dc:type rdf:resource="http://purl.org/dc/dcmitype/StillImage"/>
        <dc:title></dc:title>
      </cc:Work>
    </rdf:RDF>
  </metadata>

  <path
    id="path2"
    d="M 228.89258 167.62695 C 212.708 167.62695 191.64339 184.58203 160.04492 184.58203 C 153.10867 184.58203 149 183.55664 149 183.55664 C 149 183.55664 106.09645 297.1036 103.01367 304.81055 C 99.930895 312.51749 99.928688 317.65625 111.49219 317.65625 C 139.23718 317.65625 189.33219 292.48047 205.00195 292.48047 C 233.77351 292.48047 256 324.84961 256 324.84961 C 256 324.84961 280.52882 292.73633 306.73242 292.73633 C 332.93603 292.73633 368.38864 318.16797 401.01367 318.16797 C 411.0327 318.16797 411.03317 311.48895 406.92383 300.44336 C 402.81448 289.39777 362.47852 183.55273 362.47852 183.55273 C 362.47852 183.55273 358.62492 184.83789 350.66211 184.83789 C 324.71437 184.83789 295.42956 167.62695 283.86914 167.62695 C 271.7939 167.62695 256 180.98437 256 180.98438 C 256 180.98438 237.62608 167.62695 228.89258 167.62695 z M 284.35156 180.4707 C 302.84822 180.4707 314.40934 195.11328 346.00781 195.11328 C 352.93789 195.11328 357.82422 194.59961 357.82422 194.59961 C 357.82422 194.59961 391.73559 285.28485 394.5625 294.78906 C 397.3894 304.29634 393.53585 305.83789 386.85547 305.83789 C 375.03919 305.83789 332.9063 281.17578 304.64648 281.17578 C 277.41631 281.17578 263.54297 298.13086 263.54297 298.13086 L 263.54297 192.80078 C 265.08436 187.66179 271.76458 180.4707 284.35156 180.4707 z M 228.12305 180.47266 C 240.71003 180.47266 247.39025 187.6657 248.93164 192.80469 L 248.93164 298.13086 C 248.93164 298.13086 235.05829 281.17578 207.82812 281.17578 C 179.56831 281.17578 137.44045 305.83789 125.62109 305.83789 C 118.94071 305.83789 115.08716 304.29717 117.91406 294.79297 C 120.74097 285.28877 154.65039 194.60156 154.65039 194.60156 C 154.65039 194.60156 159.53671 195.11719 166.4668 195.11719 C 198.06526 195.11719 209.62639 180.47266 228.12305 180.47266 z M 135.61914 199.10547 C 134.74142 199.14335 133.74233 199.96375 133.06836 201.79492 C 131.2711 206.67495 80.405032 318.16842 77.578125 324.58984 C 74.754301 331.01435 74.75519 335.38086 85.800781 335.38086 L 238.14062 335.38086 L 238.14062 344.37305 L 274.10742 344.37305 L 274.10742 334.60938 L 428.50391 334.60938 C 433.89877 334.60938 438.77846 333.58347 434.1543 323.82031 C 429.53013 314.05715 381.74567 208.47104 379.43359 202.82031 C 377.12151 197.16958 372.75743 199.48131 374.55469 203.84961 C 376.35195 208.2179 420.79649 309.6911 422.59375 314.57422 C 424.39101 319.45426 426.70327 327.16211 405.89453 327.16211 C 377.89366 327.16211 328.82357 307.63867 307.5 307.63867 C 286.17643 307.63867 266.15158 320.22435 256 333.58203 C 245.84841 324.07782 233.0028 307.63477 205.51367 307.63477 C 178.02455 307.63477 143.08672 326.90234 107.37891 326.90234 C 94.021235 326.90234 84.57388 325.67873 89.654297 313.80078 C 91.830737 308.7142 134.86874 209.50032 136.92188 204.36133 C 138.20701 201.14946 137.08201 199.04234 135.61914 199.10547 z "
    style="fill:#a1568a;fill-opacity:1;stroke-width:3.08277726"/>
</svg>
